<mxfile host="app.diagrams.net" agent="Mozilla/5.0 (Windows NT 10.0; Win64; x64) AppleWebKit/537.36 (KHTML, like Gecko) Chrome/140.0.0.0 Safari/537.36" version="28.2.5">
  <diagram name="Page-1" id="6fqtCadwwPhyaWFGxWbu">
    <mxGraphModel dx="1189" dy="1632" grid="1" gridSize="10" guides="1" tooltips="1" connect="1" arrows="1" fold="1" page="1" pageScale="1" pageWidth="1100" pageHeight="850" math="0" shadow="0">
      <root>
        <mxCell id="0" />
        <mxCell id="1" parent="0" />
        <mxCell id="cWhazSUVIykC4ZwmwN_i-2" style="rounded=0;orthogonalLoop=1;jettySize=auto;html=1;endArrow=none;endFill=0;dashed=1;" edge="1" parent="1" source="cWhazSUVIykC4ZwmwN_i-3">
          <mxGeometry relative="1" as="geometry">
            <mxPoint x="100" y="560" as="targetPoint" />
          </mxGeometry>
        </mxCell>
        <mxCell id="cWhazSUVIykC4ZwmwN_i-3" value="&lt;font style=&quot;font-size: 18px;&quot;&gt;Admin&lt;/font&gt;" style="rounded=0;whiteSpace=wrap;html=1;" vertex="1" parent="1">
          <mxGeometry x="40" y="40" width="120" height="40" as="geometry" />
        </mxCell>
        <mxCell id="cWhazSUVIykC4ZwmwN_i-4" style="edgeStyle=orthogonalEdgeStyle;rounded=0;orthogonalLoop=1;jettySize=auto;html=1;endArrow=none;endFill=0;dashed=1;" edge="1" parent="1" source="cWhazSUVIykC4ZwmwN_i-5">
          <mxGeometry relative="1" as="geometry">
            <mxPoint x="560" y="560" as="targetPoint" />
          </mxGeometry>
        </mxCell>
        <mxCell id="cWhazSUVIykC4ZwmwN_i-5" value="&lt;span style=&quot;font-family: Helvetica, &amp;quot;VP Default&amp;quot;; font-size: 18px; background-color: rgb(248, 249, 250);&quot;&gt;Client app&lt;/span&gt;" style="rounded=0;whiteSpace=wrap;html=1;" vertex="1" parent="1">
          <mxGeometry x="480" y="40" width="160" height="40" as="geometry" />
        </mxCell>
        <mxCell id="cWhazSUVIykC4ZwmwN_i-6" style="edgeStyle=orthogonalEdgeStyle;rounded=0;orthogonalLoop=1;jettySize=auto;html=1;dashed=1;endArrow=none;endFill=0;" edge="1" parent="1" source="cWhazSUVIykC4ZwmwN_i-7">
          <mxGeometry relative="1" as="geometry">
            <mxPoint x="980" y="560" as="targetPoint" />
          </mxGeometry>
        </mxCell>
        <mxCell id="cWhazSUVIykC4ZwmwN_i-7" value="&lt;font style=&quot;font-size: 18px;&quot;&gt;Backend&lt;/font&gt;" style="rounded=0;whiteSpace=wrap;html=1;" vertex="1" parent="1">
          <mxGeometry x="880" y="40" width="200" height="40" as="geometry" />
        </mxCell>
        <mxCell id="cWhazSUVIykC4ZwmwN_i-8" style="edgeStyle=orthogonalEdgeStyle;rounded=0;orthogonalLoop=1;jettySize=auto;html=1;" edge="1" parent="1" source="cWhazSUVIykC4ZwmwN_i-10">
          <mxGeometry relative="1" as="geometry">
            <mxPoint x="560" y="105" as="targetPoint" />
          </mxGeometry>
        </mxCell>
        <mxCell id="cWhazSUVIykC4ZwmwN_i-9" style="edgeStyle=orthogonalEdgeStyle;rounded=0;orthogonalLoop=1;jettySize=auto;html=1;endArrow=none;endFill=0;" edge="1" parent="1" source="cWhazSUVIykC4ZwmwN_i-10">
          <mxGeometry relative="1" as="geometry">
            <mxPoint x="99.99999999999977" y="105" as="targetPoint" />
          </mxGeometry>
        </mxCell>
        <mxCell id="cWhazSUVIykC4ZwmwN_i-10" value="&lt;font style=&quot;font-size: 18px;&quot;&gt;Login&lt;/font&gt;" style="text;html=1;align=center;verticalAlign=middle;whiteSpace=wrap;rounded=0;" vertex="1" parent="1">
          <mxGeometry x="250" y="90" width="60" height="30" as="geometry" />
        </mxCell>
        <mxCell id="cWhazSUVIykC4ZwmwN_i-11" style="edgeStyle=orthogonalEdgeStyle;rounded=0;orthogonalLoop=1;jettySize=auto;html=1;" edge="1" parent="1" source="cWhazSUVIykC4ZwmwN_i-13">
          <mxGeometry relative="1" as="geometry">
            <mxPoint x="980" y="125" as="targetPoint" />
          </mxGeometry>
        </mxCell>
        <mxCell id="cWhazSUVIykC4ZwmwN_i-12" style="edgeStyle=orthogonalEdgeStyle;rounded=0;orthogonalLoop=1;jettySize=auto;html=1;endArrow=none;endFill=0;" edge="1" parent="1" source="cWhazSUVIykC4ZwmwN_i-13">
          <mxGeometry relative="1" as="geometry">
            <mxPoint x="560" y="125" as="targetPoint" />
          </mxGeometry>
        </mxCell>
        <mxCell id="cWhazSUVIykC4ZwmwN_i-13" value="&lt;span style=&quot;font-size: 18px; background-color: rgb(248, 249, 250);&quot;&gt;Verify credentials and return role&lt;/span&gt;" style="text;html=1;align=center;verticalAlign=middle;whiteSpace=wrap;rounded=0;" vertex="1" parent="1">
          <mxGeometry x="630" y="110" width="270" height="30" as="geometry" />
        </mxCell>
        <mxCell id="cWhazSUVIykC4ZwmwN_i-14" style="edgeStyle=orthogonalEdgeStyle;rounded=0;orthogonalLoop=1;jettySize=auto;html=1;endArrow=none;endFill=0;" edge="1" parent="1" source="cWhazSUVIykC4ZwmwN_i-16">
          <mxGeometry relative="1" as="geometry">
            <mxPoint x="980" y="155" as="targetPoint" />
          </mxGeometry>
        </mxCell>
        <mxCell id="cWhazSUVIykC4ZwmwN_i-15" style="edgeStyle=orthogonalEdgeStyle;rounded=0;orthogonalLoop=1;jettySize=auto;html=1;" edge="1" parent="1" source="cWhazSUVIykC4ZwmwN_i-16">
          <mxGeometry relative="1" as="geometry">
            <mxPoint x="560" y="155" as="targetPoint" />
          </mxGeometry>
        </mxCell>
        <mxCell id="cWhazSUVIykC4ZwmwN_i-16" value="&lt;span style=&quot;font-size: 18px; background-color: rgb(248, 249, 250);&quot;&gt;Show menu&lt;/span&gt;" style="text;html=1;align=center;verticalAlign=middle;whiteSpace=wrap;rounded=0;" vertex="1" parent="1">
          <mxGeometry x="705" y="140" width="120" height="30" as="geometry" />
        </mxCell>
        <mxCell id="cWhazSUVIykC4ZwmwN_i-17" style="edgeStyle=orthogonalEdgeStyle;rounded=0;orthogonalLoop=1;jettySize=auto;html=1;" edge="1" parent="1" source="cWhazSUVIykC4ZwmwN_i-19">
          <mxGeometry relative="1" as="geometry">
            <mxPoint x="560" y="175" as="targetPoint" />
          </mxGeometry>
        </mxCell>
        <mxCell id="cWhazSUVIykC4ZwmwN_i-18" style="edgeStyle=orthogonalEdgeStyle;rounded=0;orthogonalLoop=1;jettySize=auto;html=1;endArrow=none;endFill=0;" edge="1" parent="1" source="cWhazSUVIykC4ZwmwN_i-19">
          <mxGeometry relative="1" as="geometry">
            <mxPoint x="99.99999999999977" y="175" as="targetPoint" />
          </mxGeometry>
        </mxCell>
        <mxCell id="cWhazSUVIykC4ZwmwN_i-19" value="&lt;span style=&quot;font-size: 18px; background-color: rgb(248, 249, 250);&quot;&gt;Manage Courses&lt;/span&gt;" style="text;html=1;align=center;verticalAlign=middle;whiteSpace=wrap;rounded=0;" vertex="1" parent="1">
          <mxGeometry x="200" y="160" width="160" height="30" as="geometry" />
        </mxCell>
        <mxCell id="cWhazSUVIykC4ZwmwN_i-20" style="edgeStyle=orthogonalEdgeStyle;rounded=0;orthogonalLoop=1;jettySize=auto;html=1;" edge="1" parent="1" source="cWhazSUVIykC4ZwmwN_i-22">
          <mxGeometry relative="1" as="geometry">
            <mxPoint x="980" y="195" as="targetPoint" />
          </mxGeometry>
        </mxCell>
        <mxCell id="cWhazSUVIykC4ZwmwN_i-21" style="edgeStyle=orthogonalEdgeStyle;rounded=0;orthogonalLoop=1;jettySize=auto;html=1;endArrow=none;endFill=0;" edge="1" parent="1" source="cWhazSUVIykC4ZwmwN_i-22">
          <mxGeometry relative="1" as="geometry">
            <mxPoint x="560" y="195" as="targetPoint" />
          </mxGeometry>
        </mxCell>
        <mxCell id="cWhazSUVIykC4ZwmwN_i-22" value="&lt;span style=&quot;font-size: 18px; background-color: rgb(248, 249, 250);&quot;&gt;Add/Remove/Edit&lt;/span&gt;" style="text;html=1;align=center;verticalAlign=middle;whiteSpace=wrap;rounded=0;" vertex="1" parent="1">
          <mxGeometry x="670" y="180" width="190" height="30" as="geometry" />
        </mxCell>
        <mxCell id="cWhazSUVIykC4ZwmwN_i-23" style="edgeStyle=orthogonalEdgeStyle;rounded=0;orthogonalLoop=1;jettySize=auto;html=1;endArrow=none;endFill=0;" edge="1" parent="1" source="cWhazSUVIykC4ZwmwN_i-25">
          <mxGeometry relative="1" as="geometry">
            <mxPoint x="980" y="235" as="targetPoint" />
          </mxGeometry>
        </mxCell>
        <mxCell id="cWhazSUVIykC4ZwmwN_i-24" style="edgeStyle=orthogonalEdgeStyle;rounded=0;orthogonalLoop=1;jettySize=auto;html=1;" edge="1" parent="1" source="cWhazSUVIykC4ZwmwN_i-25">
          <mxGeometry relative="1" as="geometry">
            <mxPoint x="560" y="235" as="targetPoint" />
          </mxGeometry>
        </mxCell>
        <mxCell id="cWhazSUVIykC4ZwmwN_i-25" value="&lt;span style=&quot;font-size: 18px; background-color: rgb(248, 249, 250);&quot;&gt;Show updated catalog&lt;/span&gt;" style="text;html=1;align=center;verticalAlign=middle;whiteSpace=wrap;rounded=0;" vertex="1" parent="1">
          <mxGeometry x="660" y="220" width="200" height="30" as="geometry" />
        </mxCell>
        <mxCell id="cWhazSUVIykC4ZwmwN_i-26" style="edgeStyle=orthogonalEdgeStyle;rounded=0;orthogonalLoop=1;jettySize=auto;html=1;" edge="1" parent="1" source="cWhazSUVIykC4ZwmwN_i-28">
          <mxGeometry relative="1" as="geometry">
            <mxPoint x="560" y="255" as="targetPoint" />
          </mxGeometry>
        </mxCell>
        <mxCell id="cWhazSUVIykC4ZwmwN_i-27" style="edgeStyle=orthogonalEdgeStyle;rounded=0;orthogonalLoop=1;jettySize=auto;html=1;endArrow=none;endFill=0;" edge="1" parent="1" source="cWhazSUVIykC4ZwmwN_i-28">
          <mxGeometry relative="1" as="geometry">
            <mxPoint x="99.99999999999977" y="255" as="targetPoint" />
          </mxGeometry>
        </mxCell>
        <mxCell id="cWhazSUVIykC4ZwmwN_i-28" value="&lt;span style=&quot;font-size: 18px; background-color: rgb(248, 249, 250);&quot;&gt;Generate Report&lt;/span&gt;" style="text;html=1;align=center;verticalAlign=middle;whiteSpace=wrap;rounded=0;" vertex="1" parent="1">
          <mxGeometry x="200" y="240" width="160" height="30" as="geometry" />
        </mxCell>
        <mxCell id="cWhazSUVIykC4ZwmwN_i-29" style="edgeStyle=orthogonalEdgeStyle;rounded=0;orthogonalLoop=1;jettySize=auto;html=1;" edge="1" parent="1" source="cWhazSUVIykC4ZwmwN_i-31">
          <mxGeometry relative="1" as="geometry">
            <mxPoint x="980" y="275" as="targetPoint" />
          </mxGeometry>
        </mxCell>
        <mxCell id="cWhazSUVIykC4ZwmwN_i-30" style="edgeStyle=orthogonalEdgeStyle;rounded=0;orthogonalLoop=1;jettySize=auto;html=1;endArrow=none;endFill=0;" edge="1" parent="1" source="cWhazSUVIykC4ZwmwN_i-31">
          <mxGeometry relative="1" as="geometry">
            <mxPoint x="560" y="275" as="targetPoint" />
          </mxGeometry>
        </mxCell>
        <mxCell id="cWhazSUVIykC4ZwmwN_i-31" value="&lt;span style=&quot;font-size: 18px; background-color: rgb(248, 249, 250);&quot;&gt;Admin generation request&lt;/span&gt;" style="text;html=1;align=center;verticalAlign=middle;whiteSpace=wrap;rounded=0;" vertex="1" parent="1">
          <mxGeometry x="645" y="260" width="240" height="30" as="geometry" />
        </mxCell>
        <mxCell id="cWhazSUVIykC4ZwmwN_i-32" style="edgeStyle=orthogonalEdgeStyle;rounded=0;orthogonalLoop=1;jettySize=auto;html=1;endArrow=none;endFill=0;" edge="1" parent="1" source="cWhazSUVIykC4ZwmwN_i-34">
          <mxGeometry relative="1" as="geometry">
            <mxPoint x="980" y="315" as="targetPoint" />
          </mxGeometry>
        </mxCell>
        <mxCell id="cWhazSUVIykC4ZwmwN_i-33" style="edgeStyle=orthogonalEdgeStyle;rounded=0;orthogonalLoop=1;jettySize=auto;html=1;" edge="1" parent="1" source="cWhazSUVIykC4ZwmwN_i-34">
          <mxGeometry relative="1" as="geometry">
            <mxPoint x="560" y="315" as="targetPoint" />
          </mxGeometry>
        </mxCell>
        <mxCell id="cWhazSUVIykC4ZwmwN_i-34" value="&lt;span style=&quot;font-size: 18px; background-color: rgb(248, 249, 250);&quot;&gt;Report data&lt;/span&gt;" style="text;html=1;align=center;verticalAlign=middle;whiteSpace=wrap;rounded=0;" vertex="1" parent="1">
          <mxGeometry x="680" y="300" width="160" height="30" as="geometry" />
        </mxCell>
        <mxCell id="cWhazSUVIykC4ZwmwN_i-35" style="edgeStyle=orthogonalEdgeStyle;rounded=0;orthogonalLoop=1;jettySize=auto;html=1;" edge="1" parent="1" source="cWhazSUVIykC4ZwmwN_i-37">
          <mxGeometry relative="1" as="geometry">
            <mxPoint x="560" y="335" as="targetPoint" />
          </mxGeometry>
        </mxCell>
        <mxCell id="cWhazSUVIykC4ZwmwN_i-36" style="edgeStyle=orthogonalEdgeStyle;rounded=0;orthogonalLoop=1;jettySize=auto;html=1;endArrow=none;endFill=0;" edge="1" parent="1" source="cWhazSUVIykC4ZwmwN_i-37">
          <mxGeometry relative="1" as="geometry">
            <mxPoint x="99.99999999999977" y="335" as="targetPoint" />
          </mxGeometry>
        </mxCell>
        <mxCell id="cWhazSUVIykC4ZwmwN_i-37" value="&lt;span style=&quot;font-size: 18px; background-color: rgb(248, 249, 250);&quot;&gt;Browse Course&lt;/span&gt;" style="text;html=1;align=center;verticalAlign=middle;whiteSpace=wrap;rounded=0;" vertex="1" parent="1">
          <mxGeometry x="180" y="320" width="200" height="30" as="geometry" />
        </mxCell>
        <mxCell id="cWhazSUVIykC4ZwmwN_i-75" style="edgeStyle=orthogonalEdgeStyle;rounded=0;orthogonalLoop=1;jettySize=auto;html=1;endArrow=none;endFill=0;" edge="1" parent="1" source="cWhazSUVIykC4ZwmwN_i-49">
          <mxGeometry relative="1" as="geometry">
            <mxPoint x="100" y="425" as="targetPoint" />
          </mxGeometry>
        </mxCell>
        <mxCell id="cWhazSUVIykC4ZwmwN_i-76" style="edgeStyle=orthogonalEdgeStyle;rounded=0;orthogonalLoop=1;jettySize=auto;html=1;" edge="1" parent="1" source="cWhazSUVIykC4ZwmwN_i-49">
          <mxGeometry relative="1" as="geometry">
            <mxPoint x="560" y="425" as="targetPoint" />
          </mxGeometry>
        </mxCell>
        <mxCell id="cWhazSUVIykC4ZwmwN_i-49" value="&lt;span style=&quot;font-size: 18px; background-color: rgb(248, 249, 250);&quot;&gt;View Student Schedule&lt;/span&gt;" style="text;html=1;align=center;verticalAlign=middle;whiteSpace=wrap;rounded=0;" vertex="1" parent="1">
          <mxGeometry x="160" y="410" width="240" height="30" as="geometry" />
        </mxCell>
        <mxCell id="cWhazSUVIykC4ZwmwN_i-77" style="edgeStyle=orthogonalEdgeStyle;rounded=0;orthogonalLoop=1;jettySize=auto;html=1;" edge="1" parent="1" source="cWhazSUVIykC4ZwmwN_i-52">
          <mxGeometry relative="1" as="geometry">
            <mxPoint x="980" y="445" as="targetPoint" />
          </mxGeometry>
        </mxCell>
        <mxCell id="cWhazSUVIykC4ZwmwN_i-78" style="edgeStyle=orthogonalEdgeStyle;rounded=0;orthogonalLoop=1;jettySize=auto;html=1;endArrow=none;endFill=0;" edge="1" parent="1" source="cWhazSUVIykC4ZwmwN_i-52">
          <mxGeometry relative="1" as="geometry">
            <mxPoint x="560" y="445" as="targetPoint" />
          </mxGeometry>
        </mxCell>
        <mxCell id="cWhazSUVIykC4ZwmwN_i-52" value="&lt;span style=&quot;font-size: 18px; background-color: rgb(248, 249, 250);&quot;&gt;Request&amp;nbsp;&lt;/span&gt;&lt;span style=&quot;background-color: light-dark(rgb(248, 249, 250), rgb(22, 23, 24)); font-size: 18px; color: light-dark(rgb(0, 0, 0), rgb(255, 255, 255));&quot;&gt;Schedule&lt;/span&gt;" style="text;html=1;align=center;verticalAlign=middle;whiteSpace=wrap;rounded=0;" vertex="1" parent="1">
          <mxGeometry x="660" y="430" width="200" height="30" as="geometry" />
        </mxCell>
        <mxCell id="cWhazSUVIykC4ZwmwN_i-79" style="edgeStyle=orthogonalEdgeStyle;rounded=0;orthogonalLoop=1;jettySize=auto;html=1;endArrow=none;endFill=0;" edge="1" parent="1" source="cWhazSUVIykC4ZwmwN_i-55">
          <mxGeometry relative="1" as="geometry">
            <mxPoint x="980" y="485" as="targetPoint" />
          </mxGeometry>
        </mxCell>
        <mxCell id="cWhazSUVIykC4ZwmwN_i-80" style="edgeStyle=orthogonalEdgeStyle;rounded=0;orthogonalLoop=1;jettySize=auto;html=1;" edge="1" parent="1" source="cWhazSUVIykC4ZwmwN_i-55">
          <mxGeometry relative="1" as="geometry">
            <mxPoint x="560" y="485" as="targetPoint" />
          </mxGeometry>
        </mxCell>
        <mxCell id="cWhazSUVIykC4ZwmwN_i-55" value="&lt;span style=&quot;font-size: 18px; background-color: rgb(248, 249, 250);&quot;&gt;Report Schedule&lt;/span&gt;" style="text;html=1;align=center;verticalAlign=middle;whiteSpace=wrap;rounded=0;" vertex="1" parent="1">
          <mxGeometry x="680" y="470" width="160" height="30" as="geometry" />
        </mxCell>
        <mxCell id="cWhazSUVIykC4ZwmwN_i-71" style="edgeStyle=orthogonalEdgeStyle;rounded=0;orthogonalLoop=1;jettySize=auto;html=1;" edge="1" parent="1" source="cWhazSUVIykC4ZwmwN_i-67">
          <mxGeometry relative="1" as="geometry">
            <mxPoint x="980" y="355" as="targetPoint" />
          </mxGeometry>
        </mxCell>
        <mxCell id="cWhazSUVIykC4ZwmwN_i-72" style="edgeStyle=orthogonalEdgeStyle;rounded=0;orthogonalLoop=1;jettySize=auto;html=1;endArrow=none;endFill=0;" edge="1" parent="1" source="cWhazSUVIykC4ZwmwN_i-67">
          <mxGeometry relative="1" as="geometry">
            <mxPoint x="560" y="355" as="targetPoint" />
          </mxGeometry>
        </mxCell>
        <mxCell id="cWhazSUVIykC4ZwmwN_i-67" value="&lt;span style=&quot;font-size: 18px; background-color: rgb(248, 249, 250);&quot;&gt;Request Course List&lt;/span&gt;" style="text;html=1;align=center;verticalAlign=middle;whiteSpace=wrap;rounded=0;" vertex="1" parent="1">
          <mxGeometry x="665" y="340" width="190" height="30" as="geometry" />
        </mxCell>
        <mxCell id="cWhazSUVIykC4ZwmwN_i-73" style="edgeStyle=orthogonalEdgeStyle;rounded=0;orthogonalLoop=1;jettySize=auto;html=1;endArrow=none;endFill=0;" edge="1" parent="1" source="cWhazSUVIykC4ZwmwN_i-70">
          <mxGeometry relative="1" as="geometry">
            <mxPoint x="980" y="395" as="targetPoint" />
          </mxGeometry>
        </mxCell>
        <mxCell id="cWhazSUVIykC4ZwmwN_i-74" style="edgeStyle=orthogonalEdgeStyle;rounded=0;orthogonalLoop=1;jettySize=auto;html=1;" edge="1" parent="1" source="cWhazSUVIykC4ZwmwN_i-70">
          <mxGeometry relative="1" as="geometry">
            <mxPoint x="560" y="395" as="targetPoint" />
          </mxGeometry>
        </mxCell>
        <mxCell id="cWhazSUVIykC4ZwmwN_i-70" value="&lt;span style=&quot;font-size: 18px; background-color: rgb(248, 249, 250);&quot;&gt;Report List&lt;/span&gt;" style="text;html=1;align=center;verticalAlign=middle;whiteSpace=wrap;rounded=0;" vertex="1" parent="1">
          <mxGeometry x="700" y="380" width="120" height="30" as="geometry" />
        </mxCell>
      </root>
    </mxGraphModel>
  </diagram>
</mxfile>
